# xmcd
#
# Track frame offsets:
#	150
#	14962
#	25350
#	34050
#	45862
#	50962
#	55425
#	59662
#	66037
#	71662
#	78862
#	85387
#	92962
#	102900
#	111487
#	115425
#	123112
#	133950
#	144412
#	155250
#	160612
#	167887
#	176475
#	187387
#	196237
#	208575
#	215287
#	222262
#	228375
#	238912
#	244387
#	257662
#	264750
#	273900
#	279637
#	288450
#	294750
#	300600
#	306000
#
# Disc length: 4221 seconds
#
# Revision: 2
# Processed by: cddbd v1.4PL0 Copyright (c) Steve Scherf et al.
# Submitted via: audiograbber 1.81.03
#
DISCID=56107b27
DTITLE=Various Artist - Traditional Fiddle Music of Kentucky, volume 1, Up the Ohio an
DTITLE=d Licking Rivers
DYEAR=1997
DGENRE=
TTITLE0=Buddy`Thomas - Portsmouth Airs
TTITLE1=George Lee`Hawkins - Bumblebee in a Jug
TTITLE2=George Lee`Hawkins - Meg Gray
TTITLE3=Alfred`Bailey - Lansing Quadrille
TTITLE4=Alfred`Bailey - Weddington's Reel
TTITLE5=Alva`Greene - Indian Squaw
TTITLE6=Alva`Greene - The Pet Indian
TTITLE7=Perry`Riley - Getting George Bush Upstairs
TTITLE8=Perry`Riley - Getting Wild Again
TTITLE9=Charlie`Kinney - Lost Hornpipe
TTITLE10=Bob`Prater - Blackeyed Peas and Cornbread
TTITLE11=Bob`Prater - Grand Hornpipe
TTITLE12=Buddy`Thomas - Snakewinder
TTITLE13=George Lee`Hawkins - Humphrey's Jig
TTITLE14=George Lee`Hawkins - Darling Girl
TTITLE15=George Lee`Hawkins - Rat's Gone to Rest
TTITLE16=Alfred`Bailey - Big Indian Hornpipe
TTITLE17=Alfred`Bailey - Alexander Waltz
TTITLE18=Buddy`Thomas - Turkey Gobbler
TTITLE19=Alva`Greene - I've Got a Grandpa
TTITLE20=Alva`Greene - The Blind Man's Lament
TTITLE21=Alva`Greene - McClanahan's March
TTITLE22=George Lee`Hawkins - Callahan
TTITLE23=George Lee`Hawkins - Boatin's Up Sandy
TTITLE24=Buddy`Thomas - Pumpkin Vine
TTITLE25=Clarence`Rigdon - Kicked up a Devil of a Row
TTITLE26=Charlie`Kinney - The`Bell Cow
TTITLE27=Bob`Prater - Onion Tops and Turnip Greens
TTITLE28=Buddy`Thomas - Feed my Horse on Corn and Hay
TTITLE29=Perry`Riley - Jaybird in a High Oak Tree
TTITLE30=Perry`Riley - Warfield
TTITLE31=Alfred`Bailey - Bell Cow
TTITLE32=Alfred`Bailey - Tilden to the White House
TTITLE33=George Lee`Hawkins - Greek Medley
TTITLE34=George Lee`Hawkins - Big Footed
TTITLE35=Alva`Greene - Flannery's Dream
TTITLE36=Alva`Greene - The Winding Sheep
TTITLE37=Alva`Greene - Buck Hord
TTITLE38=Buddy`Thomas - Short's Addition
EXTD=
EXTT0=
EXTT1=
EXTT2=
EXTT3=
EXTT4=
EXTT5=
EXTT6=
EXTT7=
EXTT8=
EXTT9=
EXTT10=
EXTT11=
EXTT12=
EXTT13=
EXTT14=
EXTT15=
EXTT16=
EXTT17=
EXTT18=
EXTT19=
EXTT20=
EXTT21=
EXTT22=
EXTT23=
EXTT24=
EXTT25=
EXTT26=
EXTT27=
EXTT28=
EXTT29=
EXTT30=
EXTT31=
EXTT32=
EXTT33=
EXTT34=
EXTT35=
EXTT36=
EXTT37=
EXTT38=
PLAYORDER=
